<?xml version="1.0" standalone="no"?>
<!DOCTYPE svg PUBLIC "-//W3C//DTD SVG 20010904//EN"
 "http://www.w3.org/TR/2001/REC-SVG-20010904/DTD/svg10.dtd">
<svg version="1.0" xmlns="http://www.w3.org/2000/svg"
 width="600.000000pt" height="600.000000pt" viewBox="0 0 600.000000 600.000000"
 preserveAspectRatio="xMidYMid meet">

<g transform="translate(0.000000,600.000000) scale(0.100000,-0.100000)"
fill="#000000" stroke="none">
<path d="M2811 5354 c-254 -27 -501 -89 -666 -169 -61 -29 -143 -80 -211 -130
-19 -14 -25 -13 -78 11 -69 32 -156 41 -225 24 -106 -25 -219 -127 -257 -231
-25 -67 -22 -174 6 -232 26 -55 95 -120 158 -148 40 -19 43 -22 37 -50 -30
-136 -37 -206 -42 -414 -4 -192 0 -280 21 -536 14 -169 26 -338 26 -376 l0
-70 -50 -2 c-56 -2 -141 -30 -191 -64 -67 -45 -102 -136 -64 -167 8 -7 15 -21
15 -32 0 -29 51 -76 80 -73 14 1 34 3 46 4 11 0 46 17 78 36 61 37 86 43 86
23 0 -7 -9 -128 -21 -268 -24 -295 -29 -623 -10 -760 16 -116 54 -273 86 -353
38 -92 109 -207 170 -274 l55 -62 -59 -45 c-121 -94 -171 -176 -150 -250 6
-23 28 -49 67 -81 52 -43 60 -47 99 -42 45 5 111 43 178 102 63 56 131 96 172
102 26 3 58 -4 102 -21 83 -33 238 -71 371 -90 277 -40 549 -28 875 38 79 16
298 96 319 117 30 28 83 -6 166 -106 59 -71 121 -115 162 -115 37 0 120 59
141 100 37 71 -6 174 -112 271 -56 51 -62 61 -49 72 36 28 132 166 168 242 77
158 132 362 158 580 12 96 14 586 3 740 -4 61 -6 111 -6 113 1 1 31 -11 66
-28 35 -16 75 -30 89 -30 34 0 69 26 87 64 8 17 20 42 28 55 14 26 7 66 -20
108 -33 50 -164 113 -236 113 -15 0 -29 7 -33 16 -3 9 -6 149 -6 312 0 492
-21 787 -71 1037 -11 55 -16 101 -11 103 5 1 33 17 63 35 66 40 114 101 135
174 44 150 -46 331 -196 401 -43 20 -72 25 -135 26 -70 1 -88 -3 -149 -32
l-68 -32 -37 28 c-132 103 -334 182 -550 217 -75 13 -412 37 -461 34 -8 -1
-75 -8 -149 -15z m359 -28 c474 -17 800 -169 997 -464 116 -174 191 -456 222
-837 6 -66 13 -302 16 -525 4 -223 15 -546 26 -718 30 -500 24 -795 -21 -1028
-66 -337 -181 -555 -378 -714 -179 -146 -393 -234 -692 -286 -144 -24 -504
-30 -655 -10 -585 77 -941 335 -1059 766 -59 217 -71 510 -37 945 38 493 38
598 -5 1050 -22 229 -29 559 -15 684 39 353 138 597 316 774 162 161 369 259
680 322 127 26 376 54 430 49 17 -2 95 -5 175 -8z m1152 -218 c55 -16 129 -78
165 -137 85 -142 57 -292 -72 -381 -75 -52 -76 -52 -112 61 l-32 99 21 41 c18
35 19 46 10 78 -18 57 -54 86 -110 86 -44 0 -50 3 -100 57 l-54 57 42 21 c77
39 151 45 242 18z m-2526 -53 c27 -8 58 -21 69 -29 19 -14 18 -16 -25 -63 -25
-26 -55 -60 -67 -76 -18 -24 -24 -26 -48 -17 -14 5 -46 10 -70 10 -36 0 -48
-5 -69 -30 -51 -61 -41 -138 24 -177 17 -10 29 -22 27 -28 -2 -5 -14 -41 -26
-78 -21 -61 -25 -67 -44 -61 -67 21 -147 97 -167 159 -18 55 -9 162 19 215 75
146 231 219 377 175z m2809 -2075 c37 -18 69 -42 83 -63 38 -56 25 -104 -20
-73 -28 20 -38 20 -38 1 0 -9 11 -21 25 -27 28 -13 31 -26 11 -53 -20 -27 -67
-23 -140 14 -72 37 -76 45 -76 175 l0 69 48 -7 c26 -3 74 -19 107 -36z m-3016
-27 c0 -27 -4 -67 -7 -90 -7 -40 -11 -46 -77 -84 -88 -52 -145 -61 -169 -28
-21 31 -21 34 9 47 14 6 25 18 25 27 0 17 -25 21 -35 5 -3 -5 -15 -10 -26 -10
-14 0 -19 7 -19 25 0 75 126 153 248 155 l52 0 -1 -47z m2591 -1964 c72 -71
115 -152 105 -198 -6 -27 -31 -60 -38 -50 -2 2 -14 28 -27 57 -28 63 -47 82
-60 62 -6 -10 -3 -22 9 -35 15 -17 51 -94 51 -110 0 -2 -13 -11 -28 -19 -25
-13 -32 -13 -68 4 -47 21 -226 211 -205 218 7 2 50 33 95 67 44 35 86 63 93
64 6 1 39 -26 73 -60z m-2199 -32 c52 -35 109 -69 127 -76 17 -8 32 -16 32
-20 -1 -3 -22 -16 -48 -28 -26 -12 -80 -50 -121 -83 -120 -99 -172 -119 -212
-79 -24 24 -20 41 22 107 32 51 35 62 16 62 -13 0 -77 -97 -77 -118 0 -22 -20
-13 -30 14 -29 76 5 140 122 228 40 30 74 55 74 55 1 1 44 -27 95 -62z"/>
<path d="M3369 5096 c-127 -36 -255 -143 -308 -256 -23 -49 -26 -68 -26 -165
0 -101 2 -115 29 -170 83 -169 289 -269 487 -236 273 45 430 239 390 483 -7
40 -23 97 -36 126 -34 75 -115 156 -194 195 -61 30 -73 32 -181 34 -71 1 -132
-3 -161 -11z m233 -17 c158 -33 267 -140 304 -296 50 -212 -46 -383 -259 -462
-308 -114 -638 114 -587 406 16 93 45 149 115 219 114 115 275 165 427 133z"/>
<path d="M3202 4780 c-57 -35 -78 -122 -48 -195 29 -68 115 -94 176 -53 90 61
91 185 1 245 -42 28 -86 29 -129 3z m148 -135 c18 -22 3 -55 -26 -55 -20 0
-24 5 -24 28 0 43 25 57 50 27z"/>
<path d="M2303 5059 c-110 -18 -201 -67 -276 -148 -83 -89 -118 -209 -98 -337
33 -213 203 -354 428 -354 321 0 533 234 472 522 -34 160 -157 277 -326 313
-75 16 -122 17 -200 4z m205 -34 c193 -46 302 -185 302 -387 0 -245 -237 -423
-515 -386 -271 35 -424 320 -303 562 84 166 311 259 516 211z"/>
<path d="M2094 4741 c-115 -70 -63 -261 71 -261 125 0 177 163 80 249 -43 37
-102 42 -151 12z m151 -156 c0 -23 -5 -30 -19 -30 -24 0 -41 27 -33 49 4 11
15 16 29 14 18 -2 23 -9 23 -33z"/>
<path d="M2898 4386 c-21 -8 -49 -21 -63 -30 -25 -17 -61 -73 -57 -92 1 -5
-16 -18 -37 -28 -82 -36 -134 -132 -112 -207 15 -50 47 -87 82 -96 29 -8 30
-10 33 -78 6 -119 48 -185 117 -185 26 0 47 8 68 26 l31 26 31 -26 c39 -34 70
-41 112 -27 63 21 72 41 70 152 l-1 99 49 0 c44 0 53 4 87 38 69 69 63 140
-17 215 -26 25 -62 52 -79 61 -18 9 -32 24 -32 32 0 97 -158 164 -282 120z
m-90 -191 c63 -58 237 -54 326 8 28 20 30 20 61 3 51 -28 104 -75 121 -108 20
-38 11 -78 -26 -118 -36 -38 -78 -39 -163 -4 -94 39 -166 42 -256 10 -133 -47
-199 -28 -216 60 -8 47 27 121 74 151 42 29 46 29 79 -2z m140 -331 l-2 -116
-32 -24 c-37 -29 -75 -31 -98 -5 -38 41 -60 177 -33 202 12 11 130 55 154 58
10 1 12 -27 11 -115z m153 92 l36 -15 7 -81 c9 -102 -3 -144 -46 -159 -45 -16
-53 -14 -87 20 -29 28 -31 36 -31 98 0 38 3 90 7 116 l6 47 36 -5 c20 -3 52
-12 72 -21z"/>
</g>
</svg>
